<?xml version="1.0" encoding="UTF-8"?>
<svg xmlns="http://www.w3.org/2000/svg" xmlns:xlink="http://www.w3.org/1999/xlink" width="64px" height="64px" viewBox="0 0 64 64" version="1.1">
<g id="surface1">
<path style="fill:none;stroke-width:32;stroke-linecap:round;stroke-linejoin:round;stroke:rgb(0%,0%,0%);stroke-opacity:1;stroke-miterlimit:4;" d="M 155 19.99939 C 229.567261 19.99939 290.00061 67.017822 290.00061 124.991455 C 290.00061 141.566162 229.567261 155 155 155 C 80.432739 155 19.99939 141.566162 19.99939 124.991455 C 19.99939 67.017822 80.432739 19.99939 155 19.99939 M 110.006104 170.004272 L 199.993896 170.004272 C 199.993896 236.265259 179.862061 290.00061 155 290.00061 C 130.137939 290.00061 110.006104 236.265259 110.006104 170.004272 M 259.992065 199.993896 C 276.566772 199.993896 290.00061 213.427734 290.00061 230.002441 C 290.00061 238.289795 276.566772 245.006714 259.992065 245.006714 C 243.436279 245.006714 230.002441 238.289795 230.002441 230.002441 C 230.002441 213.427734 243.436279 199.993896 259.992065 199.993896 M 245.006714 259.992065 L 274.996338 259.992065 C 274.996338 276.566772 268.279419 290.00061 259.992065 290.00061 C 251.723633 290.00061 245.006714 276.566772 245.006714 259.992065 M 50.007935 170.004272 C 66.563721 170.004272 79.997559 183.43811 79.997559 199.993896 C 79.997559 208.28125 66.563721 214.998169 50.007935 214.998169 C 33.433228 214.998169 19.99939 208.28125 19.99939 199.993896 C 19.99939 183.43811 33.433228 170.004272 50.007935 170.004272 M 35.003662 230.002441 L 64.993286 230.002441 C 64.993286 246.577148 58.276367 259.992065 50.007935 259.992065 C 41.720581 259.992065 35.003662 246.577148 35.003662 230.002441 " transform="matrix(0.206452,0,0,0.206452,0,0)"/>
<path style="fill:none;stroke-width:10;stroke-linecap:round;stroke-linejoin:round;stroke:rgb(80%,80%,80%);stroke-opacity:1;stroke-miterlimit:4;" d="M 110.006104 170.004272 C 126.56189 170.004272 139.995728 176.721191 139.995728 185.008545 L 155 185.008545 C 155 176.721191 175.150757 170.004272 199.993896 170.004272 C 199.993896 236.265259 179.862061 290.00061 155 290.00061 C 130.137939 290.00061 110.006104 236.265259 110.006104 170.004272 " transform="matrix(0.206452,0,0,0.206452,0,0)"/>
<path style="fill-rule:nonzero;fill:rgb(100%,100%,100%);fill-opacity:1;stroke-width:10;stroke-linecap:round;stroke-linejoin:round;stroke:rgb(100%,100%,100%);stroke-opacity:1;stroke-miterlimit:4;" d="M 155 19.99939 C 80.432739 19.99939 19.99939 67.017822 19.99939 124.991455 C 19.99939 141.566162 80.432739 155 155 155 C 229.567261 155 290.00061 141.566162 290.00061 124.991455 C 290.00061 67.017822 229.567261 19.99939 155 19.99939 M 110.006104 170.004272 L 199.993896 170.004272 C 199.993896 236.265259 179.862061 290.00061 155 290.00061 C 130.137939 290.00061 110.006104 236.265259 110.006104 170.004272 M 259.992065 199.993896 C 243.436279 199.993896 230.002441 213.427734 230.002441 230.002441 C 230.002441 238.289795 243.436279 245.006714 259.992065 245.006714 C 276.566772 245.006714 290.00061 238.289795 290.00061 230.002441 C 290.00061 213.427734 276.566772 199.993896 259.992065 199.993896 M 245.006714 259.992065 L 274.996338 259.992065 C 274.996338 276.566772 268.279419 290.00061 259.992065 290.00061 C 251.723633 290.00061 245.006714 276.566772 245.006714 259.992065 M 50.007935 170.004272 C 33.433228 170.004272 19.99939 183.43811 19.99939 199.993896 C 19.99939 208.28125 33.433228 214.998169 50.007935 214.998169 C 66.563721 214.998169 79.997559 208.28125 79.997559 199.993896 C 79.997559 183.43811 66.563721 170.004272 50.007935 170.004272 M 35.003662 230.002441 L 64.993286 230.002441 C 64.993286 246.577148 58.276367 259.992065 50.007935 259.992065 C 41.720581 259.992065 35.003662 246.577148 35.003662 230.002441 " transform="matrix(0.206452,0,0,0.206452,0,0)"/>
</g>
</svg>
